<svg xmlns="http://www.w3.org/2000/svg" viewBox="0 0 749 167" role="img" aria-label="GitHub contributions for Cynwell-Liao">
  <rect width="749" height="167" rx="14" fill="#f8fafc" />
  <text x="12" y="16" fill="#0f172a" font-size="11" font-family="JetBrains Mono Variable, ui-monospace">Contributions for @Cynwell-Liao · 726 in last year</text>
  <text x="12" y="157" fill="#64748b" font-size="10" font-family="JetBrains Mono Variable, ui-monospace">Fallback mock generated locally (token missing)</text>
  <g fill="#64748b" font-size="10" font-family="JetBrains Mono Variable, ui-monospace"><text x="83" y="24">Mar</text><text x="148" y="24">Apr</text><text x="200" y="24">May</text><text x="252" y="24">Jun</text><text x="317" y="24">Jul</text><text x="369" y="24">Aug</text><text x="434" y="24">Sep</text><text x="486" y="24">Oct</text><text x="538" y="24">Nov</text><text x="603" y="24">Dec</text><text x="655" y="24">Jan</text><text x="707" y="24">Feb</text><text x="8" y="61">Mon</text><text x="8" y="87">Wed</text><text x="8" y="113">Fri</text></g>
  <g><rect x="44" y="40" width="10" height="10" rx="2" fill="#ebedf0"><title>2025-02-09: 0 contributions</title></rect><rect x="44" y="53" width="10" height="10" rx="2" fill="#ebedf0"><title>2025-02-10: 0 contributions</title></rect><rect x="44" y="66" width="10" height="10" rx="2" fill="#ebedf0"><title>2025-02-11: 0 contributions</title></rect><rect x="44" y="79" width="10" height="10" rx="2" fill="#ebedf0"><title>2025-02-12: 0 contributions</title></rect><rect x="44" y="92" width="10" height="10" rx="2" fill="#ebedf0"><title>2025-02-13: 0 contributions</title></rect><rect x="44" y="105" width="10" height="10" rx="2" fill="#ebedf0"><title>2025-02-14: 0 contributions</title></rect><rect x="44" y="118" width="10" height="10" rx="2" fill="#ebedf0"><title>2025-02-15: 0 contributions</title></rect><rect x="57" y="40" width="10" height="10" rx="2" fill="#ebedf0"><title>2025-02-16: 0 contributions</title></rect><rect x="57" y="53" width="10" height="10" rx="2" fill="#ebedf0"><title>2025-02-17: 0 contributions</title></rect><rect x="57" y="66" width="10" height="10" rx="2" fill="#ebedf0"><title>2025-02-18: 0 contributions</title></rect><rect x="57" y="79" width="10" height="10" rx="2" fill="#ebedf0"><title>2025-02-19: 0 contributions</title></rect><rect x="57" y="92" width="10" height="10" rx="2" fill="#216e39"><title>2025-02-20: 10 contributions</title></rect><rect x="57" y="105" width="10" height="10" rx="2" fill="#30a14e"><title>2025-02-21: 9 contributions</title></rect><rect x="57" y="118" width="10" height="10" rx="2" fill="#30a14e"><title>2025-02-22: 8 contributions</title></rect><rect x="70" y="40" width="10" height="10" rx="2" fill="#30a14e"><title>2025-02-23: 7 contributions</title></rect><rect x="70" y="53" width="10" height="10" rx="2" fill="#216e39"><title>2025-02-24: 14 contributions</title></rect><rect x="70" y="66" width="10" height="10" rx="2" fill="#216e39"><title>2025-02-25: 13 contributions</title></rect><rect x="70" y="79" width="10" height="10" rx="2" fill="#40c463"><title>2025-02-26: 3 contributions</title></rect><rect x="70" y="92" width="10" height="10" rx="2" fill="#40c463"><title>2025-02-27: 5 contributions</title></rect><rect x="70" y="105" width="10" height="10" rx="2" fill="#40c463"><title>2025-02-28: 4 contributions</title></rect><rect x="70" y="118" width="10" height="10" rx="2" fill="#9be9a8"><title>2025-03-01: 2 contributions</title></rect><rect x="83" y="40" width="10" height="10" rx="2" fill="#9be9a8"><title>2025-03-02: 1 contribution</title></rect><rect x="83" y="53" width="10" height="10" rx="2" fill="#9be9a8"><title>2025-03-03: 2 contributions</title></rect><rect x="83" y="66" width="10" height="10" rx="2" fill="#9be9a8"><title>2025-03-04: 1 contribution</title></rect><rect x="83" y="79" width="10" height="10" rx="2" fill="#9be9a8"><title>2025-03-05: 2 contributions</title></rect><rect x="83" y="92" width="10" height="10" rx="2" fill="#9be9a8"><title>2025-03-06: 1 contribution</title></rect><rect x="83" y="105" width="10" height="10" rx="2" fill="#9be9a8"><title>2025-03-07: 2 contributions</title></rect><rect x="83" y="118" width="10" height="10" rx="2" fill="#9be9a8"><title>2025-03-08: 1 contribution</title></rect><rect x="96" y="40" width="10" height="10" rx="2" fill="#9be9a8"><title>2025-03-09: 2 contributions</title></rect><rect x="96" y="53" width="10" height="10" rx="2" fill="#ebedf0"><title>2025-03-10: 0 contributions</title></rect><rect x="96" y="66" width="10" height="10" rx="2" fill="#ebedf0"><title>2025-03-11: 0 contributions</title></rect><rect x="96" y="79" width="10" height="10" rx="2" fill="#ebedf0"><title>2025-03-12: 0 contributions</title></rect><rect x="96" y="92" width="10" height="10" rx="2" fill="#ebedf0"><title>2025-03-13: 0 contributions</title></rect><rect x="96" y="105" width="10" height="10" rx="2" fill="#ebedf0"><title>2025-03-14: 0 contributions</title></rect><rect x="96" y="118" width="10" height="10" rx="2" fill="#ebedf0"><title>2025-03-15: 0 contributions</title></rect><rect x="109" y="40" width="10" height="10" rx="2" fill="#ebedf0"><title>2025-03-16: 0 contributions</title></rect><rect x="109" y="53" width="10" height="10" rx="2" fill="#ebedf0"><title>2025-03-17: 0 contributions</title></rect><rect x="109" y="66" width="10" height="10" rx="2" fill="#ebedf0"><title>2025-03-18: 0 contributions</title></rect><rect x="109" y="79" width="10" height="10" rx="2" fill="#ebedf0"><title>2025-03-19: 0 contributions</title></rect><rect x="109" y="92" width="10" height="10" rx="2" fill="#ebedf0"><title>2025-03-20: 0 contributions</title></rect><rect x="109" y="105" width="10" height="10" rx="2" fill="#ebedf0"><title>2025-03-21: 0 contributions</title></rect><rect x="109" y="118" width="10" height="10" rx="2" fill="#ebedf0"><title>2025-03-22: 0 contributions</title></rect><rect x="122" y="40" width="10" height="10" rx="2" fill="#ebedf0"><title>2025-03-23: 0 contributions</title></rect><rect x="122" y="53" width="10" height="10" rx="2" fill="#ebedf0"><title>2025-03-24: 0 contributions</title></rect><rect x="122" y="66" width="10" height="10" rx="2" fill="#216e39"><title>2025-03-25: 14 contributions</title></rect><rect x="122" y="79" width="10" height="10" rx="2" fill="#216e39"><title>2025-03-26: 13 contributions</title></rect><rect x="122" y="92" width="10" height="10" rx="2" fill="#216e39"><title>2025-03-27: 12 contributions</title></rect><rect x="122" y="105" width="10" height="10" rx="2" fill="#216e39"><title>2025-03-28: 11 contributions</title></rect><rect x="122" y="118" width="10" height="10" rx="2" fill="#216e39"><title>2025-03-29: 10 contributions</title></rect><rect x="135" y="40" width="10" height="10" rx="2" fill="#9be9a8"><title>2025-03-30: 2 contributions</title></rect><rect x="135" y="53" width="10" height="10" rx="2" fill="#9be9a8"><title>2025-03-31: 1 contribution</title></rect><rect x="135" y="66" width="10" height="10" rx="2" fill="#9be9a8"><title>2025-04-01: 1 contribution</title></rect><rect x="135" y="79" width="10" height="10" rx="2" fill="#9be9a8"><title>2025-04-02: 2 contributions</title></rect><rect x="135" y="92" width="10" height="10" rx="2" fill="#9be9a8"><title>2025-04-03: 1 contribution</title></rect><rect x="135" y="105" width="10" height="10" rx="2" fill="#9be9a8"><title>2025-04-04: 2 contributions</title></rect><rect x="135" y="118" width="10" height="10" rx="2" fill="#9be9a8"><title>2025-04-05: 1 contribution</title></rect><rect x="148" y="40" width="10" height="10" rx="2" fill="#9be9a8"><title>2025-04-06: 2 contributions</title></rect><rect x="148" y="53" width="10" height="10" rx="2" fill="#9be9a8"><title>2025-04-07: 1 contribution</title></rect><rect x="148" y="66" width="10" height="10" rx="2" fill="#9be9a8"><title>2025-04-08: 2 contributions</title></rect><rect x="148" y="79" width="10" height="10" rx="2" fill="#9be9a8"><title>2025-04-09: 1 contribution</title></rect><rect x="148" y="92" width="10" height="10" rx="2" fill="#ebedf0"><title>2025-04-10: 0 contributions</title></rect><rect x="148" y="105" width="10" height="10" rx="2" fill="#ebedf0"><title>2025-04-11: 0 contributions</title></rect><rect x="148" y="118" width="10" height="10" rx="2" fill="#ebedf0"><title>2025-04-12: 0 contributions</title></rect><rect x="161" y="40" width="10" height="10" rx="2" fill="#ebedf0"><title>2025-04-13: 0 contributions</title></rect><rect x="161" y="53" width="10" height="10" rx="2" fill="#ebedf0"><title>2025-04-14: 0 contributions</title></rect><rect x="161" y="66" width="10" height="10" rx="2" fill="#ebedf0"><title>2025-04-15: 0 contributions</title></rect><rect x="161" y="79" width="10" height="10" rx="2" fill="#ebedf0"><title>2025-04-16: 0 contributions</title></rect><rect x="161" y="92" width="10" height="10" rx="2" fill="#ebedf0"><title>2025-04-17: 0 contributions</title></rect><rect x="161" y="105" width="10" height="10" rx="2" fill="#ebedf0"><title>2025-04-18: 0 contributions</title></rect><rect x="161" y="118" width="10" height="10" rx="2" fill="#ebedf0"><title>2025-04-19: 0 contributions</title></rect><rect x="174" y="40" width="10" height="10" rx="2" fill="#ebedf0"><title>2025-04-20: 0 contributions</title></rect><rect x="174" y="53" width="10" height="10" rx="2" fill="#ebedf0"><title>2025-04-21: 0 contributions</title></rect><rect x="174" y="66" width="10" height="10" rx="2" fill="#ebedf0"><title>2025-04-22: 0 contributions</title></rect><rect x="174" y="79" width="10" height="10" rx="2" fill="#ebedf0"><title>2025-04-23: 0 contributions</title></rect><rect x="174" y="92" width="10" height="10" rx="2" fill="#ebedf0"><title>2025-04-24: 0 contributions</title></rect><rect x="174" y="105" width="10" height="10" rx="2" fill="#ebedf0"><title>2025-04-25: 0 contributions</title></rect><rect x="174" y="118" width="10" height="10" rx="2" fill="#ebedf0"><title>2025-04-26: 0 contributions</title></rect><rect x="187" y="40" width="10" height="10" rx="2" fill="#ebedf0"><title>2025-04-27: 0 contributions</title></rect><rect x="187" y="53" width="10" height="10" rx="2" fill="#ebedf0"><title>2025-04-28: 0 contributions</title></rect><rect x="187" y="66" width="10" height="10" rx="2" fill="#ebedf0"><title>2025-04-29: 0 contributions</title></rect><rect x="187" y="79" width="10" height="10" rx="2" fill="#40c463"><title>2025-04-30: 3 contributions</title></rect><rect x="187" y="92" width="10" height="10" rx="2" fill="#40c463"><title>2025-05-01: 4 contributions</title></rect><rect x="187" y="105" width="10" height="10" rx="2" fill="#40c463"><title>2025-05-02: 3 contributions</title></rect><rect x="187" y="118" width="10" height="10" rx="2" fill="#40c463"><title>2025-05-03: 5 contributions</title></rect><rect x="200" y="40" width="10" height="10" rx="2" fill="#40c463"><title>2025-05-04: 4 contributions</title></rect><rect x="200" y="53" width="10" height="10" rx="2" fill="#40c463"><title>2025-05-05: 3 contributions</title></rect><rect x="200" y="66" width="10" height="10" rx="2" fill="#40c463"><title>2025-05-06: 5 contributions</title></rect><rect x="200" y="79" width="10" height="10" rx="2" fill="#40c463"><title>2025-05-07: 4 contributions</title></rect><rect x="200" y="92" width="10" height="10" rx="2" fill="#40c463"><title>2025-05-08: 3 contributions</title></rect><rect x="200" y="105" width="10" height="10" rx="2" fill="#9be9a8"><title>2025-05-09: 2 contributions</title></rect><rect x="200" y="118" width="10" height="10" rx="2" fill="#9be9a8"><title>2025-05-10: 2 contributions</title></rect><rect x="213" y="40" width="10" height="10" rx="2" fill="#9be9a8"><title>2025-05-11: 1 contribution</title></rect><rect x="213" y="53" width="10" height="10" rx="2" fill="#ebedf0"><title>2025-05-12: 0 contributions</title></rect><rect x="213" y="66" width="10" height="10" rx="2" fill="#ebedf0"><title>2025-05-13: 0 contributions</title></rect><rect x="213" y="79" width="10" height="10" rx="2" fill="#ebedf0"><title>2025-05-14: 0 contributions</title></rect><rect x="213" y="92" width="10" height="10" rx="2" fill="#ebedf0"><title>2025-05-15: 0 contributions</title></rect><rect x="213" y="105" width="10" height="10" rx="2" fill="#ebedf0"><title>2025-05-16: 0 contributions</title></rect><rect x="213" y="118" width="10" height="10" rx="2" fill="#ebedf0"><title>2025-05-17: 0 contributions</title></rect><rect x="226" y="40" width="10" height="10" rx="2" fill="#ebedf0"><title>2025-05-18: 0 contributions</title></rect><rect x="226" y="53" width="10" height="10" rx="2" fill="#ebedf0"><title>2025-05-19: 0 contributions</title></rect><rect x="226" y="66" width="10" height="10" rx="2" fill="#ebedf0"><title>2025-05-20: 0 contributions</title></rect><rect x="226" y="79" width="10" height="10" rx="2" fill="#ebedf0"><title>2025-05-21: 0 contributions</title></rect><rect x="226" y="92" width="10" height="10" rx="2" fill="#ebedf0"><title>2025-05-22: 0 contributions</title></rect><rect x="226" y="105" width="10" height="10" rx="2" fill="#ebedf0"><title>2025-05-23: 0 contributions</title></rect><rect x="226" y="118" width="10" height="10" rx="2" fill="#ebedf0"><title>2025-05-24: 0 contributions</title></rect><rect x="239" y="40" width="10" height="10" rx="2" fill="#ebedf0"><title>2025-05-25: 0 contributions</title></rect><rect x="239" y="53" width="10" height="10" rx="2" fill="#ebedf0"><title>2025-05-26: 0 contributions</title></rect><rect x="239" y="66" width="10" height="10" rx="2" fill="#ebedf0"><title>2025-05-27: 0 contributions</title></rect><rect x="239" y="79" width="10" height="10" rx="2" fill="#ebedf0"><title>2025-05-28: 0 contributions</title></rect><rect x="239" y="92" width="10" height="10" rx="2" fill="#ebedf0"><title>2025-05-29: 0 contributions</title></rect><rect x="239" y="105" width="10" height="10" rx="2" fill="#216e39"><title>2025-05-30: 14 contributions</title></rect><rect x="239" y="118" width="10" height="10" rx="2" fill="#216e39"><title>2025-05-31: 13 contributions</title></rect><rect x="252" y="40" width="10" height="10" rx="2" fill="#216e39"><title>2025-06-01: 11 contributions</title></rect><rect x="252" y="53" width="10" height="10" rx="2" fill="#216e39"><title>2025-06-02: 10 contributions</title></rect><rect x="252" y="66" width="10" height="10" rx="2" fill="#30a14e"><title>2025-06-03: 9 contributions</title></rect><rect x="252" y="79" width="10" height="10" rx="2" fill="#40c463"><title>2025-06-04: 3 contributions</title></rect><rect x="252" y="92" width="10" height="10" rx="2" fill="#40c463"><title>2025-06-05: 5 contributions</title></rect><rect x="252" y="105" width="10" height="10" rx="2" fill="#40c463"><title>2025-06-06: 4 contributions</title></rect><rect x="252" y="118" width="10" height="10" rx="2" fill="#40c463"><title>2025-06-07: 3 contributions</title></rect><rect x="265" y="40" width="10" height="10" rx="2" fill="#40c463"><title>2025-06-08: 5 contributions</title></rect><rect x="265" y="53" width="10" height="10" rx="2" fill="#40c463"><title>2025-06-09: 4 contributions</title></rect><rect x="265" y="66" width="10" height="10" rx="2" fill="#9be9a8"><title>2025-06-10: 1 contribution</title></rect><rect x="265" y="79" width="10" height="10" rx="2" fill="#9be9a8"><title>2025-06-11: 2 contributions</title></rect><rect x="265" y="92" width="10" height="10" rx="2" fill="#9be9a8"><title>2025-06-12: 1 contribution</title></rect><rect x="265" y="105" width="10" height="10" rx="2" fill="#9be9a8"><title>2025-06-13: 2 contributions</title></rect><rect x="265" y="118" width="10" height="10" rx="2" fill="#9be9a8"><title>2025-06-14: 1 contribution</title></rect><rect x="278" y="40" width="10" height="10" rx="2" fill="#9be9a8"><title>2025-06-15: 2 contributions</title></rect><rect x="278" y="53" width="10" height="10" rx="2" fill="#9be9a8"><title>2025-06-16: 1 contribution</title></rect><rect x="278" y="66" width="10" height="10" rx="2" fill="#9be9a8"><title>2025-06-17: 2 contributions</title></rect><rect x="278" y="79" width="10" height="10" rx="2" fill="#9be9a8"><title>2025-06-18: 1 contribution</title></rect><rect x="278" y="92" width="10" height="10" rx="2" fill="#9be9a8"><title>2025-06-19: 2 contributions</title></rect><rect x="278" y="105" width="10" height="10" rx="2" fill="#ebedf0"><title>2025-06-20: 0 contributions</title></rect><rect x="278" y="118" width="10" height="10" rx="2" fill="#ebedf0"><title>2025-06-21: 0 contributions</title></rect><rect x="291" y="40" width="10" height="10" rx="2" fill="#ebedf0"><title>2025-06-22: 0 contributions</title></rect><rect x="291" y="53" width="10" height="10" rx="2" fill="#ebedf0"><title>2025-06-23: 0 contributions</title></rect><rect x="291" y="66" width="10" height="10" rx="2" fill="#ebedf0"><title>2025-06-24: 0 contributions</title></rect><rect x="291" y="79" width="10" height="10" rx="2" fill="#ebedf0"><title>2025-06-25: 0 contributions</title></rect><rect x="291" y="92" width="10" height="10" rx="2" fill="#ebedf0"><title>2025-06-26: 0 contributions</title></rect><rect x="291" y="105" width="10" height="10" rx="2" fill="#ebedf0"><title>2025-06-27: 0 contributions</title></rect><rect x="291" y="118" width="10" height="10" rx="2" fill="#ebedf0"><title>2025-06-28: 0 contributions</title></rect><rect x="304" y="40" width="10" height="10" rx="2" fill="#ebedf0"><title>2025-06-29: 0 contributions</title></rect><rect x="304" y="53" width="10" height="10" rx="2" fill="#ebedf0"><title>2025-06-30: 0 contributions</title></rect><rect x="304" y="66" width="10" height="10" rx="2" fill="#ebedf0"><title>2025-07-01: 0 contributions</title></rect><rect x="304" y="79" width="10" height="10" rx="2" fill="#ebedf0"><title>2025-07-02: 0 contributions</title></rect><rect x="304" y="92" width="10" height="10" rx="2" fill="#216e39"><title>2025-07-03: 10 contributions</title></rect><rect x="304" y="105" width="10" height="10" rx="2" fill="#30a14e"><title>2025-07-04: 9 contributions</title></rect><rect x="304" y="118" width="10" height="10" rx="2" fill="#30a14e"><title>2025-07-05: 8 contributions</title></rect><rect x="317" y="40" width="10" height="10" rx="2" fill="#30a14e"><title>2025-07-06: 7 contributions</title></rect><rect x="317" y="53" width="10" height="10" rx="2" fill="#216e39"><title>2025-07-07: 14 contributions</title></rect><rect x="317" y="66" width="10" height="10" rx="2" fill="#216e39"><title>2025-07-08: 13 contributions</title></rect><rect x="317" y="79" width="10" height="10" rx="2" fill="#216e39"><title>2025-07-09: 12 contributions</title></rect><rect x="317" y="92" width="10" height="10" rx="2" fill="#9be9a8"><title>2025-07-10: 2 contributions</title></rect><rect x="317" y="105" width="10" height="10" rx="2" fill="#9be9a8"><title>2025-07-11: 1 contribution</title></rect><rect x="317" y="118" width="10" height="10" rx="2" fill="#9be9a8"><title>2025-07-12: 2 contributions</title></rect><rect x="330" y="40" width="10" height="10" rx="2" fill="#9be9a8"><title>2025-07-13: 1 contribution</title></rect><rect x="330" y="53" width="10" height="10" rx="2" fill="#9be9a8"><title>2025-07-14: 2 contributions</title></rect><rect x="330" y="66" width="10" height="10" rx="2" fill="#9be9a8"><title>2025-07-15: 1 contribution</title></rect><rect x="330" y="79" width="10" height="10" rx="2" fill="#9be9a8"><title>2025-07-16: 2 contributions</title></rect><rect x="330" y="92" width="10" height="10" rx="2" fill="#9be9a8"><title>2025-07-17: 1 contribution</title></rect><rect x="330" y="105" width="10" height="10" rx="2" fill="#9be9a8"><title>2025-07-18: 2 contributions</title></rect><rect x="330" y="118" width="10" height="10" rx="2" fill="#9be9a8"><title>2025-07-19: 1 contribution</title></rect><rect x="343" y="40" width="10" height="10" rx="2" fill="#ebedf0"><title>2025-07-20: 0 contributions</title></rect><rect x="343" y="53" width="10" height="10" rx="2" fill="#ebedf0"><title>2025-07-21: 0 contributions</title></rect><rect x="343" y="66" width="10" height="10" rx="2" fill="#ebedf0"><title>2025-07-22: 0 contributions</title></rect><rect x="343" y="79" width="10" height="10" rx="2" fill="#ebedf0"><title>2025-07-23: 0 contributions</title></rect><rect x="343" y="92" width="10" height="10" rx="2" fill="#ebedf0"><title>2025-07-24: 0 contributions</title></rect><rect x="343" y="105" width="10" height="10" rx="2" fill="#ebedf0"><title>2025-07-25: 0 contributions</title></rect><rect x="343" y="118" width="10" height="10" rx="2" fill="#ebedf0"><title>2025-07-26: 0 contributions</title></rect><rect x="356" y="40" width="10" height="10" rx="2" fill="#ebedf0"><title>2025-07-27: 0 contributions</title></rect><rect x="356" y="53" width="10" height="10" rx="2" fill="#ebedf0"><title>2025-07-28: 0 contributions</title></rect><rect x="356" y="66" width="10" height="10" rx="2" fill="#ebedf0"><title>2025-07-29: 0 contributions</title></rect><rect x="356" y="79" width="10" height="10" rx="2" fill="#ebedf0"><title>2025-07-30: 0 contributions</title></rect><rect x="356" y="92" width="10" height="10" rx="2" fill="#ebedf0"><title>2025-07-31: 0 contributions</title></rect><rect x="356" y="105" width="10" height="10" rx="2" fill="#ebedf0"><title>2025-08-01: 0 contributions</title></rect><rect x="356" y="118" width="10" height="10" rx="2" fill="#ebedf0"><title>2025-08-02: 0 contributions</title></rect><rect x="369" y="40" width="10" height="10" rx="2" fill="#ebedf0"><title>2025-08-03: 0 contributions</title></rect><rect x="369" y="53" width="10" height="10" rx="2" fill="#ebedf0"><title>2025-08-04: 0 contributions</title></rect><rect x="369" y="66" width="10" height="10" rx="2" fill="#ebedf0"><title>2025-08-05: 0 contributions</title></rect><rect x="369" y="79" width="10" height="10" rx="2" fill="#ebedf0"><title>2025-08-06: 0 contributions</title></rect><rect x="369" y="92" width="10" height="10" rx="2" fill="#ebedf0"><title>2025-08-07: 0 contributions</title></rect><rect x="369" y="105" width="10" height="10" rx="2" fill="#ebedf0"><title>2025-08-08: 0 contributions</title></rect><rect x="369" y="118" width="10" height="10" rx="2" fill="#ebedf0"><title>2025-08-09: 0 contributions</title></rect><rect x="382" y="40" width="10" height="10" rx="2" fill="#40c463"><title>2025-08-10: 4 contributions</title></rect><rect x="382" y="53" width="10" height="10" rx="2" fill="#40c463"><title>2025-08-11: 3 contributions</title></rect><rect x="382" y="66" width="10" height="10" rx="2" fill="#40c463"><title>2025-08-12: 5 contributions</title></rect><rect x="382" y="79" width="10" height="10" rx="2" fill="#40c463"><title>2025-08-13: 4 contributions</title></rect><rect x="382" y="92" width="10" height="10" rx="2" fill="#40c463"><title>2025-08-14: 3 contributions</title></rect><rect x="382" y="105" width="10" height="10" rx="2" fill="#9be9a8"><title>2025-08-15: 2 contributions</title></rect><rect x="382" y="118" width="10" height="10" rx="2" fill="#9be9a8"><title>2025-08-16: 1 contribution</title></rect><rect x="395" y="40" width="10" height="10" rx="2" fill="#9be9a8"><title>2025-08-17: 2 contributions</title></rect><rect x="395" y="53" width="10" height="10" rx="2" fill="#9be9a8"><title>2025-08-18: 1 contribution</title></rect><rect x="395" y="66" width="10" height="10" rx="2" fill="#9be9a8"><title>2025-08-19: 2 contributions</title></rect><rect x="395" y="79" width="10" height="10" rx="2" fill="#ebedf0"><title>2025-08-20: 0 contributions</title></rect><rect x="395" y="92" width="10" height="10" rx="2" fill="#ebedf0"><title>2025-08-21: 0 contributions</title></rect><rect x="395" y="105" width="10" height="10" rx="2" fill="#ebedf0"><title>2025-08-22: 0 contributions</title></rect><rect x="395" y="118" width="10" height="10" rx="2" fill="#ebedf0"><title>2025-08-23: 0 contributions</title></rect><rect x="408" y="40" width="10" height="10" rx="2" fill="#ebedf0"><title>2025-08-24: 0 contributions</title></rect><rect x="408" y="53" width="10" height="10" rx="2" fill="#ebedf0"><title>2025-08-25: 0 contributions</title></rect><rect x="408" y="66" width="10" height="10" rx="2" fill="#ebedf0"><title>2025-08-26: 0 contributions</title></rect><rect x="408" y="79" width="10" height="10" rx="2" fill="#ebedf0"><title>2025-08-27: 0 contributions</title></rect><rect x="408" y="92" width="10" height="10" rx="2" fill="#ebedf0"><title>2025-08-28: 0 contributions</title></rect><rect x="408" y="105" width="10" height="10" rx="2" fill="#ebedf0"><title>2025-08-29: 0 contributions</title></rect><rect x="408" y="118" width="10" height="10" rx="2" fill="#ebedf0"><title>2025-08-30: 0 contributions</title></rect><rect x="421" y="40" width="10" height="10" rx="2" fill="#ebedf0"><title>2025-08-31: 0 contributions</title></rect><rect x="421" y="53" width="10" height="10" rx="2" fill="#ebedf0"><title>2025-09-01: 0 contributions</title></rect><rect x="421" y="66" width="10" height="10" rx="2" fill="#ebedf0"><title>2025-09-02: 0 contributions</title></rect><rect x="421" y="79" width="10" height="10" rx="2" fill="#ebedf0"><title>2025-09-03: 0 contributions</title></rect><rect x="421" y="92" width="10" height="10" rx="2" fill="#ebedf0"><title>2025-09-04: 0 contributions</title></rect><rect x="421" y="105" width="10" height="10" rx="2" fill="#ebedf0"><title>2025-09-05: 0 contributions</title></rect><rect x="421" y="118" width="10" height="10" rx="2" fill="#ebedf0"><title>2025-09-06: 0 contributions</title></rect><rect x="434" y="40" width="10" height="10" rx="2" fill="#ebedf0"><title>2025-09-07: 0 contributions</title></rect><rect x="434" y="53" width="10" height="10" rx="2" fill="#ebedf0"><title>2025-09-08: 0 contributions</title></rect><rect x="434" y="66" width="10" height="10" rx="2" fill="#ebedf0"><title>2025-09-09: 0 contributions</title></rect><rect x="434" y="79" width="10" height="10" rx="2" fill="#40c463"><title>2025-09-10: 3 contributions</title></rect><rect x="434" y="92" width="10" height="10" rx="2" fill="#40c463"><title>2025-09-11: 5 contributions</title></rect><rect x="434" y="105" width="10" height="10" rx="2" fill="#40c463"><title>2025-09-12: 4 contributions</title></rect><rect x="434" y="118" width="10" height="10" rx="2" fill="#40c463"><title>2025-09-13: 3 contributions</title></rect><rect x="447" y="40" width="10" height="10" rx="2" fill="#40c463"><title>2025-09-14: 5 contributions</title></rect><rect x="447" y="53" width="10" height="10" rx="2" fill="#40c463"><title>2025-09-15: 4 contributions</title></rect><rect x="447" y="66" width="10" height="10" rx="2" fill="#40c463"><title>2025-09-16: 3 contributions</title></rect><rect x="447" y="79" width="10" height="10" rx="2" fill="#40c463"><title>2025-09-17: 5 contributions</title></rect><rect x="447" y="92" width="10" height="10" rx="2" fill="#40c463"><title>2025-09-18: 4 contributions</title></rect><rect x="447" y="105" width="10" height="10" rx="2" fill="#40c463"><title>2025-09-19: 3 contributions</title></rect><rect x="447" y="118" width="10" height="10" rx="2" fill="#9be9a8"><title>2025-09-20: 1 contribution</title></rect><rect x="460" y="40" width="10" height="10" rx="2" fill="#9be9a8"><title>2025-09-21: 2 contributions</title></rect><rect x="460" y="53" width="10" height="10" rx="2" fill="#9be9a8"><title>2025-09-22: 1 contribution</title></rect><rect x="460" y="66" width="10" height="10" rx="2" fill="#9be9a8"><title>2025-09-23: 2 contributions</title></rect><rect x="460" y="79" width="10" height="10" rx="2" fill="#9be9a8"><title>2025-09-24: 1 contribution</title></rect><rect x="460" y="92" width="10" height="10" rx="2" fill="#9be9a8"><title>2025-09-25: 2 contributions</title></rect><rect x="460" y="105" width="10" height="10" rx="2" fill="#9be9a8"><title>2025-09-26: 1 contribution</title></rect><rect x="460" y="118" width="10" height="10" rx="2" fill="#ebedf0"><title>2025-09-27: 0 contributions</title></rect><rect x="473" y="40" width="10" height="10" rx="2" fill="#ebedf0"><title>2025-09-28: 0 contributions</title></rect><rect x="473" y="53" width="10" height="10" rx="2" fill="#ebedf0"><title>2025-09-29: 0 contributions</title></rect><rect x="473" y="66" width="10" height="10" rx="2" fill="#ebedf0"><title>2025-09-30: 0 contributions</title></rect><rect x="473" y="79" width="10" height="10" rx="2" fill="#ebedf0"><title>2025-10-01: 0 contributions</title></rect><rect x="473" y="92" width="10" height="10" rx="2" fill="#ebedf0"><title>2025-10-02: 0 contributions</title></rect><rect x="473" y="105" width="10" height="10" rx="2" fill="#ebedf0"><title>2025-10-03: 0 contributions</title></rect><rect x="473" y="118" width="10" height="10" rx="2" fill="#ebedf0"><title>2025-10-04: 0 contributions</title></rect><rect x="486" y="40" width="10" height="10" rx="2" fill="#ebedf0"><title>2025-10-05: 0 contributions</title></rect><rect x="486" y="53" width="10" height="10" rx="2" fill="#ebedf0"><title>2025-10-06: 0 contributions</title></rect><rect x="486" y="66" width="10" height="10" rx="2" fill="#ebedf0"><title>2025-10-07: 0 contributions</title></rect><rect x="486" y="79" width="10" height="10" rx="2" fill="#ebedf0"><title>2025-10-08: 0 contributions</title></rect><rect x="486" y="92" width="10" height="10" rx="2" fill="#ebedf0"><title>2025-10-09: 0 contributions</title></rect><rect x="486" y="105" width="10" height="10" rx="2" fill="#40c463"><title>2025-10-10: 5 contributions</title></rect><rect x="486" y="118" width="10" height="10" rx="2" fill="#40c463"><title>2025-10-11: 4 contributions</title></rect><rect x="499" y="40" width="10" height="10" rx="2" fill="#40c463"><title>2025-10-12: 3 contributions</title></rect><rect x="499" y="53" width="10" height="10" rx="2" fill="#40c463"><title>2025-10-13: 5 contributions</title></rect><rect x="499" y="66" width="10" height="10" rx="2" fill="#40c463"><title>2025-10-14: 4 contributions</title></rect><rect x="499" y="79" width="10" height="10" rx="2" fill="#40c463"><title>2025-10-15: 3 contributions</title></rect><rect x="499" y="92" width="10" height="10" rx="2" fill="#40c463"><title>2025-10-16: 5 contributions</title></rect><rect x="499" y="105" width="10" height="10" rx="2" fill="#40c463"><title>2025-10-17: 4 contributions</title></rect><rect x="499" y="118" width="10" height="10" rx="2" fill="#40c463"><title>2025-10-18: 3 contributions</title></rect><rect x="512" y="40" width="10" height="10" rx="2" fill="#40c463"><title>2025-10-19: 5 contributions</title></rect><rect x="512" y="53" width="10" height="10" rx="2" fill="#9be9a8"><title>2025-10-20: 1 contribution</title></rect><rect x="512" y="66" width="10" height="10" rx="2" fill="#9be9a8"><title>2025-10-21: 2 contributions</title></rect><rect x="512" y="79" width="10" height="10" rx="2" fill="#9be9a8"><title>2025-10-22: 1 contribution</title></rect><rect x="512" y="92" width="10" height="10" rx="2" fill="#9be9a8"><title>2025-10-23: 2 contributions</title></rect><rect x="512" y="105" width="10" height="10" rx="2" fill="#9be9a8"><title>2025-10-24: 1 contribution</title></rect><rect x="512" y="118" width="10" height="10" rx="2" fill="#ebedf0"><title>2025-10-25: 0 contributions</title></rect><rect x="525" y="40" width="10" height="10" rx="2" fill="#ebedf0"><title>2025-10-26: 0 contributions</title></rect><rect x="525" y="53" width="10" height="10" rx="2" fill="#ebedf0"><title>2025-10-27: 0 contributions</title></rect><rect x="525" y="66" width="10" height="10" rx="2" fill="#ebedf0"><title>2025-10-28: 0 contributions</title></rect><rect x="525" y="79" width="10" height="10" rx="2" fill="#ebedf0"><title>2025-10-29: 0 contributions</title></rect><rect x="525" y="92" width="10" height="10" rx="2" fill="#ebedf0"><title>2025-10-30: 0 contributions</title></rect><rect x="525" y="105" width="10" height="10" rx="2" fill="#ebedf0"><title>2025-10-31: 0 contributions</title></rect><rect x="525" y="118" width="10" height="10" rx="2" fill="#ebedf0"><title>2025-11-01: 0 contributions</title></rect><rect x="538" y="40" width="10" height="10" rx="2" fill="#ebedf0"><title>2025-11-02: 0 contributions</title></rect><rect x="538" y="53" width="10" height="10" rx="2" fill="#ebedf0"><title>2025-11-03: 0 contributions</title></rect><rect x="538" y="66" width="10" height="10" rx="2" fill="#ebedf0"><title>2025-11-04: 0 contributions</title></rect><rect x="538" y="79" width="10" height="10" rx="2" fill="#ebedf0"><title>2025-11-05: 0 contributions</title></rect><rect x="538" y="92" width="10" height="10" rx="2" fill="#ebedf0"><title>2025-11-06: 0 contributions</title></rect><rect x="538" y="105" width="10" height="10" rx="2" fill="#ebedf0"><title>2025-11-07: 0 contributions</title></rect><rect x="538" y="118" width="10" height="10" rx="2" fill="#ebedf0"><title>2025-11-08: 0 contributions</title></rect><rect x="551" y="40" width="10" height="10" rx="2" fill="#ebedf0"><title>2025-11-09: 0 contributions</title></rect><rect x="551" y="53" width="10" height="10" rx="2" fill="#30a14e"><title>2025-11-10: 7 contributions</title></rect><rect x="551" y="66" width="10" height="10" rx="2" fill="#216e39"><title>2025-11-11: 14 contributions</title></rect><rect x="551" y="79" width="10" height="10" rx="2" fill="#216e39"><title>2025-11-12: 13 contributions</title></rect><rect x="551" y="92" width="10" height="10" rx="2" fill="#216e39"><title>2025-11-13: 12 contributions</title></rect><rect x="551" y="105" width="10" height="10" rx="2" fill="#216e39"><title>2025-11-14: 11 contributions</title></rect><rect x="551" y="118" width="10" height="10" rx="2" fill="#216e39"><title>2025-11-15: 10 contributions</title></rect><rect x="564" y="40" width="10" height="10" rx="2" fill="#30a14e"><title>2025-11-16: 9 contributions</title></rect><rect x="564" y="53" width="10" height="10" rx="2" fill="#40c463"><title>2025-11-17: 3 contributions</title></rect><rect x="564" y="66" width="10" height="10" rx="2" fill="#40c463"><title>2025-11-18: 5 contributions</title></rect><rect x="564" y="79" width="10" height="10" rx="2" fill="#40c463"><title>2025-11-19: 4 contributions</title></rect><rect x="564" y="92" width="10" height="10" rx="2" fill="#9be9a8"><title>2025-11-20: 2 contributions</title></rect><rect x="564" y="105" width="10" height="10" rx="2" fill="#9be9a8"><title>2025-11-21: 1 contribution</title></rect><rect x="564" y="118" width="10" height="10" rx="2" fill="#9be9a8"><title>2025-11-22: 2 contributions</title></rect><rect x="577" y="40" width="10" height="10" rx="2" fill="#9be9a8"><title>2025-11-23: 1 contribution</title></rect><rect x="577" y="53" width="10" height="10" rx="2" fill="#9be9a8"><title>2025-11-24: 2 contributions</title></rect><rect x="577" y="66" width="10" height="10" rx="2" fill="#9be9a8"><title>2025-11-25: 1 contribution</title></rect><rect x="577" y="79" width="10" height="10" rx="2" fill="#9be9a8"><title>2025-11-26: 2 contributions</title></rect><rect x="577" y="92" width="10" height="10" rx="2" fill="#9be9a8"><title>2025-11-27: 1 contribution</title></rect><rect x="577" y="105" width="10" height="10" rx="2" fill="#9be9a8"><title>2025-11-28: 2 contributions</title></rect><rect x="577" y="118" width="10" height="10" rx="2" fill="#9be9a8"><title>2025-11-29: 1 contribution</title></rect><rect x="590" y="40" width="10" height="10" rx="2" fill="#ebedf0"><title>2025-11-30: 0 contributions</title></rect><rect x="590" y="53" width="10" height="10" rx="2" fill="#ebedf0"><title>2025-12-01: 0 contributions</title></rect><rect x="590" y="66" width="10" height="10" rx="2" fill="#ebedf0"><title>2025-12-02: 0 contributions</title></rect><rect x="590" y="79" width="10" height="10" rx="2" fill="#ebedf0"><title>2025-12-03: 0 contributions</title></rect><rect x="590" y="92" width="10" height="10" rx="2" fill="#ebedf0"><title>2025-12-04: 0 contributions</title></rect><rect x="590" y="105" width="10" height="10" rx="2" fill="#ebedf0"><title>2025-12-05: 0 contributions</title></rect><rect x="590" y="118" width="10" height="10" rx="2" fill="#ebedf0"><title>2025-12-06: 0 contributions</title></rect><rect x="603" y="40" width="10" height="10" rx="2" fill="#ebedf0"><title>2025-12-07: 0 contributions</title></rect><rect x="603" y="53" width="10" height="10" rx="2" fill="#ebedf0"><title>2025-12-08: 0 contributions</title></rect><rect x="603" y="66" width="10" height="10" rx="2" fill="#ebedf0"><title>2025-12-09: 0 contributions</title></rect><rect x="603" y="79" width="10" height="10" rx="2" fill="#ebedf0"><title>2025-12-10: 0 contributions</title></rect><rect x="603" y="92" width="10" height="10" rx="2" fill="#ebedf0"><title>2025-12-11: 0 contributions</title></rect><rect x="603" y="105" width="10" height="10" rx="2" fill="#ebedf0"><title>2025-12-12: 0 contributions</title></rect><rect x="603" y="118" width="10" height="10" rx="2" fill="#ebedf0"><title>2025-12-13: 0 contributions</title></rect><rect x="616" y="40" width="10" height="10" rx="2" fill="#ebedf0"><title>2025-12-14: 0 contributions</title></rect><rect x="616" y="53" width="10" height="10" rx="2" fill="#ebedf0"><title>2025-12-15: 0 contributions</title></rect><rect x="616" y="66" width="10" height="10" rx="2" fill="#216e39"><title>2025-12-16: 10 contributions</title></rect><rect x="616" y="79" width="10" height="10" rx="2" fill="#30a14e"><title>2025-12-17: 9 contributions</title></rect><rect x="616" y="92" width="10" height="10" rx="2" fill="#30a14e"><title>2025-12-18: 8 contributions</title></rect><rect x="616" y="105" width="10" height="10" rx="2" fill="#30a14e"><title>2025-12-19: 7 contributions</title></rect><rect x="616" y="118" width="10" height="10" rx="2" fill="#9be9a8"><title>2025-12-20: 1 contribution</title></rect><rect x="629" y="40" width="10" height="10" rx="2" fill="#9be9a8"><title>2025-12-21: 2 contributions</title></rect><rect x="629" y="53" width="10" height="10" rx="2" fill="#9be9a8"><title>2025-12-22: 1 contribution</title></rect><rect x="629" y="66" width="10" height="10" rx="2" fill="#9be9a8"><title>2025-12-23: 2 contributions</title></rect><rect x="629" y="79" width="10" height="10" rx="2" fill="#9be9a8"><title>2025-12-24: 1 contribution</title></rect><rect x="629" y="92" width="10" height="10" rx="2" fill="#9be9a8"><title>2025-12-25: 2 contributions</title></rect><rect x="629" y="105" width="10" height="10" rx="2" fill="#9be9a8"><title>2025-12-26: 1 contribution</title></rect><rect x="629" y="118" width="10" height="10" rx="2" fill="#9be9a8"><title>2025-12-27: 2 contributions</title></rect><rect x="642" y="40" width="10" height="10" rx="2" fill="#9be9a8"><title>2025-12-28: 1 contribution</title></rect><rect x="642" y="53" width="10" height="10" rx="2" fill="#9be9a8"><title>2025-12-29: 2 contributions</title></rect><rect x="642" y="66" width="10" height="10" rx="2" fill="#ebedf0"><title>2025-12-30: 0 contributions</title></rect><rect x="642" y="79" width="10" height="10" rx="2" fill="#ebedf0"><title>2025-12-31: 0 contributions</title></rect><rect x="642" y="92" width="10" height="10" rx="2" fill="#9be9a8"><title>2026-01-01: 1 contribution</title></rect><rect x="642" y="105" width="10" height="10" rx="2" fill="#9be9a8"><title>2026-01-02: 2 contributions</title></rect><rect x="642" y="118" width="10" height="10" rx="2" fill="#9be9a8"><title>2026-01-03: 1 contribution</title></rect><rect x="655" y="40" width="10" height="10" rx="2" fill="#9be9a8"><title>2026-01-04: 2 contributions</title></rect><rect x="655" y="53" width="10" height="10" rx="2" fill="#9be9a8"><title>2026-01-05: 1 contribution</title></rect><rect x="655" y="66" width="10" height="10" rx="2" fill="#9be9a8"><title>2026-01-06: 2 contributions</title></rect><rect x="655" y="79" width="10" height="10" rx="2" fill="#9be9a8"><title>2026-01-07: 1 contribution</title></rect><rect x="655" y="92" width="10" height="10" rx="2" fill="#9be9a8"><title>2026-01-08: 2 contributions</title></rect><rect x="655" y="105" width="10" height="10" rx="2" fill="#9be9a8"><title>2026-01-09: 1 contribution</title></rect><rect x="655" y="118" width="10" height="10" rx="2" fill="#ebedf0"><title>2026-01-10: 0 contributions</title></rect><rect x="668" y="40" width="10" height="10" rx="2" fill="#ebedf0"><title>2026-01-11: 0 contributions</title></rect><rect x="668" y="53" width="10" height="10" rx="2" fill="#ebedf0"><title>2026-01-12: 0 contributions</title></rect><rect x="668" y="66" width="10" height="10" rx="2" fill="#ebedf0"><title>2026-01-13: 0 contributions</title></rect><rect x="668" y="79" width="10" height="10" rx="2" fill="#ebedf0"><title>2026-01-14: 0 contributions</title></rect><rect x="668" y="92" width="10" height="10" rx="2" fill="#ebedf0"><title>2026-01-15: 0 contributions</title></rect><rect x="668" y="105" width="10" height="10" rx="2" fill="#ebedf0"><title>2026-01-16: 0 contributions</title></rect><rect x="668" y="118" width="10" height="10" rx="2" fill="#ebedf0"><title>2026-01-17: 0 contributions</title></rect><rect x="681" y="40" width="10" height="10" rx="2" fill="#ebedf0"><title>2026-01-18: 0 contributions</title></rect><rect x="681" y="53" width="10" height="10" rx="2" fill="#ebedf0"><title>2026-01-19: 0 contributions</title></rect><rect x="681" y="66" width="10" height="10" rx="2" fill="#ebedf0"><title>2026-01-20: 0 contributions</title></rect><rect x="681" y="79" width="10" height="10" rx="2" fill="#ebedf0"><title>2026-01-21: 0 contributions</title></rect><rect x="681" y="92" width="10" height="10" rx="2" fill="#ebedf0"><title>2026-01-22: 0 contributions</title></rect><rect x="681" y="105" width="10" height="10" rx="2" fill="#ebedf0"><title>2026-01-23: 0 contributions</title></rect><rect x="681" y="118" width="10" height="10" rx="2" fill="#ebedf0"><title>2026-01-24: 0 contributions</title></rect><rect x="694" y="40" width="10" height="10" rx="2" fill="#ebedf0"><title>2026-01-25: 0 contributions</title></rect><rect x="694" y="53" width="10" height="10" rx="2" fill="#216e39"><title>2026-01-26: 10 contributions</title></rect><rect x="694" y="66" width="10" height="10" rx="2" fill="#30a14e"><title>2026-01-27: 9 contributions</title></rect><rect x="694" y="79" width="10" height="10" rx="2" fill="#30a14e"><title>2026-01-28: 8 contributions</title></rect><rect x="694" y="92" width="10" height="10" rx="2" fill="#30a14e"><title>2026-01-29: 7 contributions</title></rect><rect x="694" y="105" width="10" height="10" rx="2" fill="#9be9a8"><title>2026-01-30: 1 contribution</title></rect><rect x="694" y="118" width="10" height="10" rx="2" fill="#9be9a8"><title>2026-01-31: 2 contributions</title></rect><rect x="707" y="40" width="10" height="10" rx="2" fill="#9be9a8"><title>2026-02-01: 2 contributions</title></rect><rect x="707" y="53" width="10" height="10" rx="2" fill="#9be9a8"><title>2026-02-02: 1 contribution</title></rect><rect x="707" y="66" width="10" height="10" rx="2" fill="#9be9a8"><title>2026-02-03: 2 contributions</title></rect><rect x="707" y="79" width="10" height="10" rx="2" fill="#9be9a8"><title>2026-02-04: 1 contribution</title></rect><rect x="707" y="92" width="10" height="10" rx="2" fill="#9be9a8"><title>2026-02-05: 2 contributions</title></rect><rect x="707" y="105" width="10" height="10" rx="2" fill="#9be9a8"><title>2026-02-06: 1 contribution</title></rect><rect x="707" y="118" width="10" height="10" rx="2" fill="#9be9a8"><title>2026-02-07: 2 contributions</title></rect><rect x="720" y="40" width="10" height="10" rx="2" fill="#9be9a8"><title>2026-02-08: 1 contribution</title></rect><rect x="720" y="53" width="10" height="10" rx="2" fill="#9be9a8"><title>2026-02-09: 2 contributions</title></rect><rect x="720" y="66" width="10" height="10" rx="2" fill="#ebedf0"><title>2026-02-10: 0 contributions</title></rect><rect x="720" y="79" width="10" height="10" rx="2" fill="#ebedf0"><title>2026-02-11: 0 contributions</title></rect><rect x="720" y="92" width="10" height="10" rx="2" fill="#ebedf0"><title>2026-02-12: 0 contributions</title></rect><rect x="720" y="105" width="10" height="10" rx="2" fill="#ebedf0"><title>2026-02-13: 0 contributions</title></rect><rect x="720" y="118" width="10" height="10" rx="2" fill="#ebedf0"><title>2026-02-14: 0 contributions</title></rect></g>
</svg>
