<svg xmlns="http://www.w3.org/2000/svg" viewBox="0 0 749 167" role="img" aria-label="GitHub contributions for Cynwell-Liao">
  <rect width="749" height="167" rx="14" fill="#f8fafc" />
  <text x="12" y="16" fill="#0f172a" font-size="11" font-family="JetBrains Mono Variable, ui-monospace">929 contributions in the last year</text>
  <text x="12" y="157" fill="#64748b" font-size="10" font-family="JetBrains Mono Variable, ui-monospace">Generated from github.com on 2026-02-20</text>
  <g fill="#64748b" font-size="10" font-family="JetBrains Mono Variable, ui-monospace"><text x="70" y="24">Mar</text><text x="135" y="24">Apr</text><text x="187" y="24">May</text><text x="239" y="24">Jun</text><text x="304" y="24">Jul</text><text x="356" y="24">Aug</text><text x="421" y="24">Sep</text><text x="473" y="24">Oct</text><text x="525" y="24">Nov</text><text x="590" y="24">Dec</text><text x="642" y="24">Jan</text><text x="694" y="24">Feb</text><text x="8" y="61">Mon</text><text x="8" y="87">Wed</text><text x="8" y="113">Fri</text></g>
  <g><rect x="44" y="40" width="10" height="10" rx="2" fill="#ebedf0" /><rect x="44" y="53" width="10" height="10" rx="2" fill="#ebedf0" /><rect x="44" y="66" width="10" height="10" rx="2" fill="#ebedf0" /><rect x="44" y="79" width="10" height="10" rx="2" fill="#ebedf0" /><rect x="44" y="92" width="10" height="10" rx="2" fill="#ebedf0" /><rect x="44" y="105" width="10" height="10" rx="2" fill="#ebedf0" /><rect x="44" y="118" width="10" height="10" rx="2" fill="#ebedf0" /><rect x="57" y="40" width="10" height="10" rx="2" fill="#ebedf0" /><rect x="57" y="53" width="10" height="10" rx="2" fill="#ebedf0" /><rect x="57" y="66" width="10" height="10" rx="2" fill="#9be9a8" /><rect x="57" y="79" width="10" height="10" rx="2" fill="#ebedf0" /><rect x="57" y="92" width="10" height="10" rx="2" fill="#ebedf0" /><rect x="57" y="105" width="10" height="10" rx="2" fill="#ebedf0" /><rect x="57" y="118" width="10" height="10" rx="2" fill="#ebedf0" /><rect x="70" y="40" width="10" height="10" rx="2" fill="#ebedf0" /><rect x="70" y="53" width="10" height="10" rx="2" fill="#ebedf0" /><rect x="70" y="66" width="10" height="10" rx="2" fill="#ebedf0" /><rect x="70" y="79" width="10" height="10" rx="2" fill="#ebedf0" /><rect x="70" y="92" width="10" height="10" rx="2" fill="#ebedf0" /><rect x="70" y="105" width="10" height="10" rx="2" fill="#ebedf0" /><rect x="70" y="118" width="10" height="10" rx="2" fill="#ebedf0" /><rect x="83" y="40" width="10" height="10" rx="2" fill="#ebedf0" /><rect x="83" y="53" width="10" height="10" rx="2" fill="#ebedf0" /><rect x="83" y="66" width="10" height="10" rx="2" fill="#ebedf0" /><rect x="83" y="79" width="10" height="10" rx="2" fill="#ebedf0" /><rect x="83" y="92" width="10" height="10" rx="2" fill="#ebedf0" /><rect x="83" y="105" width="10" height="10" rx="2" fill="#ebedf0" /><rect x="83" y="118" width="10" height="10" rx="2" fill="#ebedf0" /><rect x="96" y="40" width="10" height="10" rx="2" fill="#ebedf0" /><rect x="96" y="53" width="10" height="10" rx="2" fill="#ebedf0" /><rect x="96" y="66" width="10" height="10" rx="2" fill="#ebedf0" /><rect x="96" y="79" width="10" height="10" rx="2" fill="#ebedf0" /><rect x="96" y="92" width="10" height="10" rx="2" fill="#ebedf0" /><rect x="96" y="105" width="10" height="10" rx="2" fill="#ebedf0" /><rect x="96" y="118" width="10" height="10" rx="2" fill="#ebedf0" /><rect x="109" y="40" width="10" height="10" rx="2" fill="#ebedf0" /><rect x="109" y="53" width="10" height="10" rx="2" fill="#ebedf0" /><rect x="109" y="66" width="10" height="10" rx="2" fill="#ebedf0" /><rect x="109" y="79" width="10" height="10" rx="2" fill="#ebedf0" /><rect x="109" y="92" width="10" height="10" rx="2" fill="#ebedf0" /><rect x="109" y="105" width="10" height="10" rx="2" fill="#ebedf0" /><rect x="109" y="118" width="10" height="10" rx="2" fill="#ebedf0" /><rect x="122" y="40" width="10" height="10" rx="2" fill="#ebedf0" /><rect x="122" y="53" width="10" height="10" rx="2" fill="#ebedf0" /><rect x="122" y="66" width="10" height="10" rx="2" fill="#9be9a8" /><rect x="122" y="79" width="10" height="10" rx="2" fill="#9be9a8" /><rect x="122" y="92" width="10" height="10" rx="2" fill="#216e39" /><rect x="122" y="105" width="10" height="10" rx="2" fill="#9be9a8" /><rect x="122" y="118" width="10" height="10" rx="2" fill="#9be9a8" /><rect x="135" y="40" width="10" height="10" rx="2" fill="#40c463" /><rect x="135" y="53" width="10" height="10" rx="2" fill="#ebedf0" /><rect x="135" y="66" width="10" height="10" rx="2" fill="#ebedf0" /><rect x="135" y="79" width="10" height="10" rx="2" fill="#ebedf0" /><rect x="135" y="92" width="10" height="10" rx="2" fill="#ebedf0" /><rect x="135" y="105" width="10" height="10" rx="2" fill="#ebedf0" /><rect x="135" y="118" width="10" height="10" rx="2" fill="#ebedf0" /><rect x="148" y="40" width="10" height="10" rx="2" fill="#9be9a8" /><rect x="148" y="53" width="10" height="10" rx="2" fill="#ebedf0" /><rect x="148" y="66" width="10" height="10" rx="2" fill="#ebedf0" /><rect x="148" y="79" width="10" height="10" rx="2" fill="#ebedf0" /><rect x="148" y="92" width="10" height="10" rx="2" fill="#216e39" /><rect x="148" y="105" width="10" height="10" rx="2" fill="#ebedf0" /><rect x="148" y="118" width="10" height="10" rx="2" fill="#ebedf0" /><rect x="161" y="40" width="10" height="10" rx="2" fill="#216e39" /><rect x="161" y="53" width="10" height="10" rx="2" fill="#ebedf0" /><rect x="161" y="66" width="10" height="10" rx="2" fill="#ebedf0" /><rect x="161" y="79" width="10" height="10" rx="2" fill="#ebedf0" /><rect x="161" y="92" width="10" height="10" rx="2" fill="#ebedf0" /><rect x="161" y="105" width="10" height="10" rx="2" fill="#ebedf0" /><rect x="161" y="118" width="10" height="10" rx="2" fill="#ebedf0" /><rect x="174" y="40" width="10" height="10" rx="2" fill="#ebedf0" /><rect x="174" y="53" width="10" height="10" rx="2" fill="#40c463" /><rect x="174" y="66" width="10" height="10" rx="2" fill="#ebedf0" /><rect x="174" y="79" width="10" height="10" rx="2" fill="#40c463" /><rect x="174" y="92" width="10" height="10" rx="2" fill="#30a14e" /><rect x="174" y="105" width="10" height="10" rx="2" fill="#ebedf0" /><rect x="174" y="118" width="10" height="10" rx="2" fill="#ebedf0" /><rect x="187" y="40" width="10" height="10" rx="2" fill="#ebedf0" /><rect x="187" y="53" width="10" height="10" rx="2" fill="#ebedf0" /><rect x="187" y="66" width="10" height="10" rx="2" fill="#ebedf0" /><rect x="187" y="79" width="10" height="10" rx="2" fill="#ebedf0" /><rect x="187" y="92" width="10" height="10" rx="2" fill="#9be9a8" /><rect x="187" y="105" width="10" height="10" rx="2" fill="#9be9a8" /><rect x="187" y="118" width="10" height="10" rx="2" fill="#30a14e" /><rect x="200" y="40" width="10" height="10" rx="2" fill="#ebedf0" /><rect x="200" y="53" width="10" height="10" rx="2" fill="#40c463" /><rect x="200" y="66" width="10" height="10" rx="2" fill="#9be9a8" /><rect x="200" y="79" width="10" height="10" rx="2" fill="#ebedf0" /><rect x="200" y="92" width="10" height="10" rx="2" fill="#ebedf0" /><rect x="200" y="105" width="10" height="10" rx="2" fill="#ebedf0" /><rect x="200" y="118" width="10" height="10" rx="2" fill="#ebedf0" /><rect x="213" y="40" width="10" height="10" rx="2" fill="#ebedf0" /><rect x="213" y="53" width="10" height="10" rx="2" fill="#ebedf0" /><rect x="213" y="66" width="10" height="10" rx="2" fill="#ebedf0" /><rect x="213" y="79" width="10" height="10" rx="2" fill="#ebedf0" /><rect x="213" y="92" width="10" height="10" rx="2" fill="#ebedf0" /><rect x="213" y="105" width="10" height="10" rx="2" fill="#ebedf0" /><rect x="213" y="118" width="10" height="10" rx="2" fill="#9be9a8" /><rect x="226" y="40" width="10" height="10" rx="2" fill="#216e39" /><rect x="226" y="53" width="10" height="10" rx="2" fill="#9be9a8" /><rect x="226" y="66" width="10" height="10" rx="2" fill="#ebedf0" /><rect x="226" y="79" width="10" height="10" rx="2" fill="#ebedf0" /><rect x="226" y="92" width="10" height="10" rx="2" fill="#ebedf0" /><rect x="226" y="105" width="10" height="10" rx="2" fill="#ebedf0" /><rect x="226" y="118" width="10" height="10" rx="2" fill="#ebedf0" /><rect x="239" y="40" width="10" height="10" rx="2" fill="#ebedf0" /><rect x="239" y="53" width="10" height="10" rx="2" fill="#ebedf0" /><rect x="239" y="66" width="10" height="10" rx="2" fill="#ebedf0" /><rect x="239" y="79" width="10" height="10" rx="2" fill="#ebedf0" /><rect x="239" y="92" width="10" height="10" rx="2" fill="#ebedf0" /><rect x="239" y="105" width="10" height="10" rx="2" fill="#ebedf0" /><rect x="239" y="118" width="10" height="10" rx="2" fill="#ebedf0" /><rect x="252" y="40" width="10" height="10" rx="2" fill="#ebedf0" /><rect x="252" y="53" width="10" height="10" rx="2" fill="#ebedf0" /><rect x="252" y="66" width="10" height="10" rx="2" fill="#ebedf0" /><rect x="252" y="79" width="10" height="10" rx="2" fill="#ebedf0" /><rect x="252" y="92" width="10" height="10" rx="2" fill="#ebedf0" /><rect x="252" y="105" width="10" height="10" rx="2" fill="#ebedf0" /><rect x="252" y="118" width="10" height="10" rx="2" fill="#ebedf0" /><rect x="265" y="40" width="10" height="10" rx="2" fill="#ebedf0" /><rect x="265" y="53" width="10" height="10" rx="2" fill="#ebedf0" /><rect x="265" y="66" width="10" height="10" rx="2" fill="#ebedf0" /><rect x="265" y="79" width="10" height="10" rx="2" fill="#ebedf0" /><rect x="265" y="92" width="10" height="10" rx="2" fill="#ebedf0" /><rect x="265" y="105" width="10" height="10" rx="2" fill="#ebedf0" /><rect x="265" y="118" width="10" height="10" rx="2" fill="#ebedf0" /><rect x="278" y="40" width="10" height="10" rx="2" fill="#ebedf0" /><rect x="278" y="53" width="10" height="10" rx="2" fill="#ebedf0" /><rect x="278" y="66" width="10" height="10" rx="2" fill="#ebedf0" /><rect x="278" y="79" width="10" height="10" rx="2" fill="#ebedf0" /><rect x="278" y="92" width="10" height="10" rx="2" fill="#ebedf0" /><rect x="278" y="105" width="10" height="10" rx="2" fill="#ebedf0" /><rect x="278" y="118" width="10" height="10" rx="2" fill="#ebedf0" /><rect x="291" y="40" width="10" height="10" rx="2" fill="#ebedf0" /><rect x="291" y="53" width="10" height="10" rx="2" fill="#40c463" /><rect x="291" y="66" width="10" height="10" rx="2" fill="#9be9a8" /><rect x="291" y="79" width="10" height="10" rx="2" fill="#9be9a8" /><rect x="291" y="92" width="10" height="10" rx="2" fill="#9be9a8" /><rect x="291" y="105" width="10" height="10" rx="2" fill="#9be9a8" /><rect x="291" y="118" width="10" height="10" rx="2" fill="#9be9a8" /><rect x="304" y="40" width="10" height="10" rx="2" fill="#9be9a8" /><rect x="304" y="53" width="10" height="10" rx="2" fill="#9be9a8" /><rect x="304" y="66" width="10" height="10" rx="2" fill="#40c463" /><rect x="304" y="79" width="10" height="10" rx="2" fill="#30a14e" /><rect x="304" y="92" width="10" height="10" rx="2" fill="#40c463" /><rect x="304" y="105" width="10" height="10" rx="2" fill="#9be9a8" /><rect x="304" y="118" width="10" height="10" rx="2" fill="#ebedf0" /><rect x="317" y="40" width="10" height="10" rx="2" fill="#ebedf0" /><rect x="317" y="53" width="10" height="10" rx="2" fill="#ebedf0" /><rect x="317" y="66" width="10" height="10" rx="2" fill="#ebedf0" /><rect x="317" y="79" width="10" height="10" rx="2" fill="#ebedf0" /><rect x="317" y="92" width="10" height="10" rx="2" fill="#ebedf0" /><rect x="317" y="105" width="10" height="10" rx="2" fill="#ebedf0" /><rect x="317" y="118" width="10" height="10" rx="2" fill="#ebedf0" /><rect x="330" y="40" width="10" height="10" rx="2" fill="#ebedf0" /><rect x="330" y="53" width="10" height="10" rx="2" fill="#ebedf0" /><rect x="330" y="66" width="10" height="10" rx="2" fill="#ebedf0" /><rect x="330" y="79" width="10" height="10" rx="2" fill="#ebedf0" /><rect x="330" y="92" width="10" height="10" rx="2" fill="#ebedf0" /><rect x="330" y="105" width="10" height="10" rx="2" fill="#ebedf0" /><rect x="330" y="118" width="10" height="10" rx="2" fill="#ebedf0" /><rect x="343" y="40" width="10" height="10" rx="2" fill="#ebedf0" /><rect x="343" y="53" width="10" height="10" rx="2" fill="#ebedf0" /><rect x="343" y="66" width="10" height="10" rx="2" fill="#ebedf0" /><rect x="343" y="79" width="10" height="10" rx="2" fill="#ebedf0" /><rect x="343" y="92" width="10" height="10" rx="2" fill="#ebedf0" /><rect x="343" y="105" width="10" height="10" rx="2" fill="#ebedf0" /><rect x="343" y="118" width="10" height="10" rx="2" fill="#ebedf0" /><rect x="356" y="40" width="10" height="10" rx="2" fill="#ebedf0" /><rect x="356" y="53" width="10" height="10" rx="2" fill="#ebedf0" /><rect x="356" y="66" width="10" height="10" rx="2" fill="#ebedf0" /><rect x="356" y="79" width="10" height="10" rx="2" fill="#ebedf0" /><rect x="356" y="92" width="10" height="10" rx="2" fill="#9be9a8" /><rect x="356" y="105" width="10" height="10" rx="2" fill="#9be9a8" /><rect x="356" y="118" width="10" height="10" rx="2" fill="#40c463" /><rect x="369" y="40" width="10" height="10" rx="2" fill="#9be9a8" /><rect x="369" y="53" width="10" height="10" rx="2" fill="#40c463" /><rect x="369" y="66" width="10" height="10" rx="2" fill="#40c463" /><rect x="369" y="79" width="10" height="10" rx="2" fill="#9be9a8" /><rect x="369" y="92" width="10" height="10" rx="2" fill="#ebedf0" /><rect x="369" y="105" width="10" height="10" rx="2" fill="#9be9a8" /><rect x="369" y="118" width="10" height="10" rx="2" fill="#9be9a8" /><rect x="382" y="40" width="10" height="10" rx="2" fill="#9be9a8" /><rect x="382" y="53" width="10" height="10" rx="2" fill="#9be9a8" /><rect x="382" y="66" width="10" height="10" rx="2" fill="#ebedf0" /><rect x="382" y="79" width="10" height="10" rx="2" fill="#9be9a8" /><rect x="382" y="92" width="10" height="10" rx="2" fill="#9be9a8" /><rect x="382" y="105" width="10" height="10" rx="2" fill="#9be9a8" /><rect x="382" y="118" width="10" height="10" rx="2" fill="#ebedf0" /><rect x="395" y="40" width="10" height="10" rx="2" fill="#40c463" /><rect x="395" y="53" width="10" height="10" rx="2" fill="#40c463" /><rect x="395" y="66" width="10" height="10" rx="2" fill="#9be9a8" /><rect x="395" y="79" width="10" height="10" rx="2" fill="#9be9a8" /><rect x="395" y="92" width="10" height="10" rx="2" fill="#9be9a8" /><rect x="395" y="105" width="10" height="10" rx="2" fill="#40c463" /><rect x="395" y="118" width="10" height="10" rx="2" fill="#30a14e" /><rect x="408" y="40" width="10" height="10" rx="2" fill="#ebedf0" /><rect x="408" y="53" width="10" height="10" rx="2" fill="#ebedf0" /><rect x="408" y="66" width="10" height="10" rx="2" fill="#ebedf0" /><rect x="408" y="79" width="10" height="10" rx="2" fill="#9be9a8" /><rect x="408" y="92" width="10" height="10" rx="2" fill="#9be9a8" /><rect x="408" y="105" width="10" height="10" rx="2" fill="#40c463" /><rect x="408" y="118" width="10" height="10" rx="2" fill="#9be9a8" /><rect x="421" y="40" width="10" height="10" rx="2" fill="#ebedf0" /><rect x="421" y="53" width="10" height="10" rx="2" fill="#9be9a8" /><rect x="421" y="66" width="10" height="10" rx="2" fill="#9be9a8" /><rect x="421" y="79" width="10" height="10" rx="2" fill="#9be9a8" /><rect x="421" y="92" width="10" height="10" rx="2" fill="#ebedf0" /><rect x="421" y="105" width="10" height="10" rx="2" fill="#9be9a8" /><rect x="421" y="118" width="10" height="10" rx="2" fill="#40c463" /><rect x="434" y="40" width="10" height="10" rx="2" fill="#9be9a8" /><rect x="434" y="53" width="10" height="10" rx="2" fill="#9be9a8" /><rect x="434" y="66" width="10" height="10" rx="2" fill="#9be9a8" /><rect x="434" y="79" width="10" height="10" rx="2" fill="#ebedf0" /><rect x="434" y="92" width="10" height="10" rx="2" fill="#9be9a8" /><rect x="434" y="105" width="10" height="10" rx="2" fill="#ebedf0" /><rect x="434" y="118" width="10" height="10" rx="2" fill="#ebedf0" /><rect x="447" y="40" width="10" height="10" rx="2" fill="#9be9a8" /><rect x="447" y="53" width="10" height="10" rx="2" fill="#9be9a8" /><rect x="447" y="66" width="10" height="10" rx="2" fill="#9be9a8" /><rect x="447" y="79" width="10" height="10" rx="2" fill="#9be9a8" /><rect x="447" y="92" width="10" height="10" rx="2" fill="#40c463" /><rect x="447" y="105" width="10" height="10" rx="2" fill="#9be9a8" /><rect x="447" y="118" width="10" height="10" rx="2" fill="#9be9a8" /><rect x="460" y="40" width="10" height="10" rx="2" fill="#ebedf0" /><rect x="460" y="53" width="10" height="10" rx="2" fill="#9be9a8" /><rect x="460" y="66" width="10" height="10" rx="2" fill="#40c463" /><rect x="460" y="79" width="10" height="10" rx="2" fill="#30a14e" /><rect x="460" y="92" width="10" height="10" rx="2" fill="#9be9a8" /><rect x="460" y="105" width="10" height="10" rx="2" fill="#9be9a8" /><rect x="460" y="118" width="10" height="10" rx="2" fill="#9be9a8" /><rect x="473" y="40" width="10" height="10" rx="2" fill="#9be9a8" /><rect x="473" y="53" width="10" height="10" rx="2" fill="#9be9a8" /><rect x="473" y="66" width="10" height="10" rx="2" fill="#9be9a8" /><rect x="473" y="79" width="10" height="10" rx="2" fill="#9be9a8" /><rect x="473" y="92" width="10" height="10" rx="2" fill="#ebedf0" /><rect x="473" y="105" width="10" height="10" rx="2" fill="#40c463" /><rect x="473" y="118" width="10" height="10" rx="2" fill="#9be9a8" /><rect x="486" y="40" width="10" height="10" rx="2" fill="#9be9a8" /><rect x="486" y="53" width="10" height="10" rx="2" fill="#9be9a8" /><rect x="486" y="66" width="10" height="10" rx="2" fill="#9be9a8" /><rect x="486" y="79" width="10" height="10" rx="2" fill="#40c463" /><rect x="486" y="92" width="10" height="10" rx="2" fill="#9be9a8" /><rect x="486" y="105" width="10" height="10" rx="2" fill="#9be9a8" /><rect x="486" y="118" width="10" height="10" rx="2" fill="#9be9a8" /><rect x="499" y="40" width="10" height="10" rx="2" fill="#30a14e" /><rect x="499" y="53" width="10" height="10" rx="2" fill="#40c463" /><rect x="499" y="66" width="10" height="10" rx="2" fill="#9be9a8" /><rect x="499" y="79" width="10" height="10" rx="2" fill="#9be9a8" /><rect x="499" y="92" width="10" height="10" rx="2" fill="#ebedf0" /><rect x="499" y="105" width="10" height="10" rx="2" fill="#9be9a8" /><rect x="499" y="118" width="10" height="10" rx="2" fill="#ebedf0" /><rect x="512" y="40" width="10" height="10" rx="2" fill="#ebedf0" /><rect x="512" y="53" width="10" height="10" rx="2" fill="#ebedf0" /><rect x="512" y="66" width="10" height="10" rx="2" fill="#9be9a8" /><rect x="512" y="79" width="10" height="10" rx="2" fill="#9be9a8" /><rect x="512" y="92" width="10" height="10" rx="2" fill="#ebedf0" /><rect x="512" y="105" width="10" height="10" rx="2" fill="#ebedf0" /><rect x="512" y="118" width="10" height="10" rx="2" fill="#ebedf0" /><rect x="525" y="40" width="10" height="10" rx="2" fill="#ebedf0" /><rect x="525" y="53" width="10" height="10" rx="2" fill="#ebedf0" /><rect x="525" y="66" width="10" height="10" rx="2" fill="#ebedf0" /><rect x="525" y="79" width="10" height="10" rx="2" fill="#ebedf0" /><rect x="525" y="92" width="10" height="10" rx="2" fill="#ebedf0" /><rect x="525" y="105" width="10" height="10" rx="2" fill="#ebedf0" /><rect x="525" y="118" width="10" height="10" rx="2" fill="#ebedf0" /><rect x="538" y="40" width="10" height="10" rx="2" fill="#ebedf0" /><rect x="538" y="53" width="10" height="10" rx="2" fill="#40c463" /><rect x="538" y="66" width="10" height="10" rx="2" fill="#216e39" /><rect x="538" y="79" width="10" height="10" rx="2" fill="#ebedf0" /><rect x="538" y="92" width="10" height="10" rx="2" fill="#ebedf0" /><rect x="538" y="105" width="10" height="10" rx="2" fill="#ebedf0" /><rect x="538" y="118" width="10" height="10" rx="2" fill="#ebedf0" /><rect x="551" y="40" width="10" height="10" rx="2" fill="#ebedf0" /><rect x="551" y="53" width="10" height="10" rx="2" fill="#ebedf0" /><rect x="551" y="66" width="10" height="10" rx="2" fill="#ebedf0" /><rect x="551" y="79" width="10" height="10" rx="2" fill="#ebedf0" /><rect x="551" y="92" width="10" height="10" rx="2" fill="#ebedf0" /><rect x="551" y="105" width="10" height="10" rx="2" fill="#ebedf0" /><rect x="551" y="118" width="10" height="10" rx="2" fill="#ebedf0" /><rect x="564" y="40" width="10" height="10" rx="2" fill="#ebedf0" /><rect x="564" y="53" width="10" height="10" rx="2" fill="#ebedf0" /><rect x="564" y="66" width="10" height="10" rx="2" fill="#ebedf0" /><rect x="564" y="79" width="10" height="10" rx="2" fill="#ebedf0" /><rect x="564" y="92" width="10" height="10" rx="2" fill="#ebedf0" /><rect x="564" y="105" width="10" height="10" rx="2" fill="#ebedf0" /><rect x="564" y="118" width="10" height="10" rx="2" fill="#ebedf0" /><rect x="577" y="40" width="10" height="10" rx="2" fill="#ebedf0" /><rect x="577" y="53" width="10" height="10" rx="2" fill="#ebedf0" /><rect x="577" y="66" width="10" height="10" rx="2" fill="#ebedf0" /><rect x="577" y="79" width="10" height="10" rx="2" fill="#ebedf0" /><rect x="577" y="92" width="10" height="10" rx="2" fill="#ebedf0" /><rect x="577" y="105" width="10" height="10" rx="2" fill="#9be9a8" /><rect x="577" y="118" width="10" height="10" rx="2" fill="#ebedf0" /><rect x="590" y="40" width="10" height="10" rx="2" fill="#ebedf0" /><rect x="590" y="53" width="10" height="10" rx="2" fill="#ebedf0" /><rect x="590" y="66" width="10" height="10" rx="2" fill="#9be9a8" /><rect x="590" y="79" width="10" height="10" rx="2" fill="#40c463" /><rect x="590" y="92" width="10" height="10" rx="2" fill="#9be9a8" /><rect x="590" y="105" width="10" height="10" rx="2" fill="#ebedf0" /><rect x="590" y="118" width="10" height="10" rx="2" fill="#9be9a8" /><rect x="603" y="40" width="10" height="10" rx="2" fill="#ebedf0" /><rect x="603" y="53" width="10" height="10" rx="2" fill="#ebedf0" /><rect x="603" y="66" width="10" height="10" rx="2" fill="#30a14e" /><rect x="603" y="79" width="10" height="10" rx="2" fill="#ebedf0" /><rect x="603" y="92" width="10" height="10" rx="2" fill="#9be9a8" /><rect x="603" y="105" width="10" height="10" rx="2" fill="#9be9a8" /><rect x="603" y="118" width="10" height="10" rx="2" fill="#ebedf0" /><rect x="616" y="40" width="10" height="10" rx="2" fill="#ebedf0" /><rect x="616" y="53" width="10" height="10" rx="2" fill="#ebedf0" /><rect x="616" y="66" width="10" height="10" rx="2" fill="#ebedf0" /><rect x="616" y="79" width="10" height="10" rx="2" fill="#ebedf0" /><rect x="616" y="92" width="10" height="10" rx="2" fill="#ebedf0" /><rect x="616" y="105" width="10" height="10" rx="2" fill="#ebedf0" /><rect x="616" y="118" width="10" height="10" rx="2" fill="#ebedf0" /><rect x="629" y="40" width="10" height="10" rx="2" fill="#ebedf0" /><rect x="629" y="53" width="10" height="10" rx="2" fill="#ebedf0" /><rect x="629" y="66" width="10" height="10" rx="2" fill="#ebedf0" /><rect x="629" y="79" width="10" height="10" rx="2" fill="#ebedf0" /><rect x="629" y="92" width="10" height="10" rx="2" fill="#ebedf0" /><rect x="629" y="105" width="10" height="10" rx="2" fill="#ebedf0" /><rect x="629" y="118" width="10" height="10" rx="2" fill="#ebedf0" /><rect x="642" y="40" width="10" height="10" rx="2" fill="#ebedf0" /><rect x="642" y="53" width="10" height="10" rx="2" fill="#ebedf0" /><rect x="642" y="66" width="10" height="10" rx="2" fill="#ebedf0" /><rect x="642" y="79" width="10" height="10" rx="2" fill="#ebedf0" /><rect x="642" y="92" width="10" height="10" rx="2" fill="#ebedf0" /><rect x="642" y="105" width="10" height="10" rx="2" fill="#ebedf0" /><rect x="642" y="118" width="10" height="10" rx="2" fill="#ebedf0" /><rect x="655" y="40" width="10" height="10" rx="2" fill="#9be9a8" /><rect x="655" y="53" width="10" height="10" rx="2" fill="#ebedf0" /><rect x="655" y="66" width="10" height="10" rx="2" fill="#9be9a8" /><rect x="655" y="79" width="10" height="10" rx="2" fill="#9be9a8" /><rect x="655" y="92" width="10" height="10" rx="2" fill="#ebedf0" /><rect x="655" y="105" width="10" height="10" rx="2" fill="#9be9a8" /><rect x="655" y="118" width="10" height="10" rx="2" fill="#ebedf0" /><rect x="668" y="40" width="10" height="10" rx="2" fill="#40c463" /><rect x="668" y="53" width="10" height="10" rx="2" fill="#9be9a8" /><rect x="668" y="66" width="10" height="10" rx="2" fill="#40c463" /><rect x="668" y="79" width="10" height="10" rx="2" fill="#ebedf0" /><rect x="668" y="92" width="10" height="10" rx="2" fill="#9be9a8" /><rect x="668" y="105" width="10" height="10" rx="2" fill="#40c463" /><rect x="668" y="118" width="10" height="10" rx="2" fill="#9be9a8" /><rect x="681" y="40" width="10" height="10" rx="2" fill="#40c463" /><rect x="681" y="53" width="10" height="10" rx="2" fill="#30a14e" /><rect x="681" y="66" width="10" height="10" rx="2" fill="#30a14e" /><rect x="681" y="79" width="10" height="10" rx="2" fill="#40c463" /><rect x="681" y="92" width="10" height="10" rx="2" fill="#9be9a8" /><rect x="681" y="105" width="10" height="10" rx="2" fill="#9be9a8" /><rect x="681" y="118" width="10" height="10" rx="2" fill="#9be9a8" /><rect x="694" y="40" width="10" height="10" rx="2" fill="#9be9a8" /><rect x="694" y="53" width="10" height="10" rx="2" fill="#40c463" /><rect x="694" y="66" width="10" height="10" rx="2" fill="#9be9a8" /><rect x="694" y="79" width="10" height="10" rx="2" fill="#9be9a8" /><rect x="694" y="92" width="10" height="10" rx="2" fill="#ebedf0" /><rect x="694" y="105" width="10" height="10" rx="2" fill="#9be9a8" /><rect x="694" y="118" width="10" height="10" rx="2" fill="#ebedf0" /><rect x="707" y="40" width="10" height="10" rx="2" fill="#9be9a8" /><rect x="707" y="53" width="10" height="10" rx="2" fill="#9be9a8" /><rect x="707" y="66" width="10" height="10" rx="2" fill="#ebedf0" /><rect x="707" y="79" width="10" height="10" rx="2" fill="#40c463" /><rect x="707" y="92" width="10" height="10" rx="2" fill="#9be9a8" /><rect x="707" y="105" width="10" height="10" rx="2" fill="#9be9a8" /><rect x="707" y="118" width="10" height="10" rx="2" fill="#40c463" /><rect x="720" y="40" width="10" height="10" rx="2" fill="#216e39" /><rect x="720" y="53" width="10" height="10" rx="2" fill="#9be9a8" /><rect x="720" y="66" width="10" height="10" rx="2" fill="#40c463" /><rect x="720" y="79" width="10" height="10" rx="2" fill="#40c463" /><rect x="720" y="92" width="10" height="10" rx="2" fill="#9be9a8" /><rect x="720" y="105" width="10" height="10" rx="2" fill="#9be9a8" /><rect x="720" y="118" width="10" height="10" rx="2" fill="#ebedf0" /></g>
</svg>
