<svg xmlns="http://www.w3.org/2000/svg" viewBox="0 0 128 128" role="img" aria-label="CL monogram icon">
  <defs>
    <linearGradient id="g" x1="0%" y1="0%" x2="100%" y2="100%">
      <stop offset="0%" stop-color="#1f9d8c" />
      <stop offset="100%" stop-color="#0f172a" />
    </linearGradient>
  </defs>
  <rect width="128" height="128" rx="28" fill="#f8fafc" />
  <path d="M34 64c0-20 14-34 34-34 9 0 17 2 24 7l-8 10c-5-3-10-4-16-4-12 0-20 9-20 21 0 12 8 21 20 21 7 0 12-2 17-6l8 10c-7 6-16 9-26 9-20 0-33-14-33-34Z" fill="url(#g)" />
  <path d="M95 30h13v55H71V30h13v42h11V30Z" fill="#1f9d8c" />
</svg>
